<svg width="78" height="61" viewBox="0 0 78 61" fill="none" xmlns="http://www.w3.org/2000/svg">
<path d="M77.2097 14.5761L51.0066 0.1879C50.5502 -0.0626335 49.9967 -0.0626335 49.5403 0.1879L39.6867 5.59848C39.4642 5.66037 39.2565 5.77404 39.0803 5.93114L23.3372 14.5761C22.8498 14.8438 22.5469 15.3556 22.5469 15.9114V19.0262H4.97021C4.12875 19.0262 3.44678 19.7087 3.44678 20.5496C3.44678 21.3911 4.12875 22.073 4.97021 22.073H22.5469V27.5574H13.8127C12.9712 27.5574 12.2893 28.24 12.2893 29.0808C12.2893 29.9223 12.9712 30.6043 13.8127 30.6043H22.5469V38.5262H9.75C8.90854 38.5262 8.22656 39.2087 8.22656 40.0496C8.22656 40.8911 8.90854 41.573 9.75 41.573H22.5469V44.6883C22.5469 45.2442 22.8498 45.7559 23.3372 46.0237L49.5403 60.4119C49.7688 60.5374 50.0211 60.5999 50.2734 60.5999C50.5258 60.5999 50.7781 60.5374 51.0066 60.4119L77.2097 46.0237C77.6971 45.7559 78 45.2442 78 44.6883V37.8662C78 37.0253 77.318 36.3428 76.4766 36.3428C75.6351 36.3428 74.9531 37.0253 74.9531 37.8662V43.7868L51.7969 56.5021V31.2012L59.1611 27.1575V33.575C59.1611 34.1141 59.4456 34.6128 59.9092 34.8866C60.1478 35.0276 60.4162 35.0984 60.6846 35.0984C60.9369 35.0984 61.1898 35.0359 61.4189 34.9098L67.0342 31.8195C67.5204 31.5517 67.8227 31.0405 67.8227 30.4847V22.4015L74.9531 18.4864V25.6787C74.9531 26.5202 75.6351 27.2021 76.4766 27.2021C77.318 27.2021 78 26.5202 78 25.6787V15.9114C78 15.3556 77.6971 14.8438 77.2097 14.5761ZM48.75 56.5021L25.5938 43.7868V18.4864L48.75 31.2012V56.5021ZM50.2734 28.5619L27.2356 15.9114L34.4761 11.9356L57.5145 24.5861L50.2734 28.5619ZM60.6798 22.8478L37.6414 10.1974L40.139 8.82627L63.1768 21.4767L60.6798 22.8478ZM64.7758 29.5843L62.208 30.9976V25.4847L64.7758 24.0743V29.5843ZM66.3421 19.7385L43.3043 7.088L50.2734 3.26155L73.3113 15.9114L66.3421 19.7385Z" fill="#FFFFFF"/>
<path d="M76.4766 30.2495C76.0761 30.2495 75.6827 30.4108 75.3994 30.6958C75.1162 30.9791 74.9531 31.3707 74.9531 31.7729C74.9531 32.1734 75.1162 32.5668 75.3994 32.8501C75.6827 33.1333 76.0761 33.2964 76.4766 33.2964C76.8771 33.2964 77.2704 33.1333 77.5537 32.8501C77.8369 32.5668 78 32.1734 78 31.7729C78 31.3707 77.8369 30.9791 77.5537 30.6958C77.2704 30.4108 76.8771 30.2495 76.4766 30.2495Z" fill="#FFFFFF"/>
<path d="M3.70683 38.5261H1.52344C0.681976 38.5261 0 39.2087 0 40.0496C0 40.891 0.681976 41.573 1.52344 41.573H3.70683C4.54829 41.573 5.23027 40.891 5.23027 40.0496C5.23027 39.2087 4.54829 38.5261 3.70683 38.5261Z" fill="#FFFFFF"/>
<path d="M9.24292 29.0808C9.24292 28.6803 9.07986 28.2876 8.79601 28.0043C8.51274 27.7204 8.11998 27.5574 7.71948 27.5574C7.31839 27.5574 6.92563 27.7204 6.64236 28.0043C6.35732 28.2876 6.19604 28.6803 6.19604 29.0808C6.19604 29.4819 6.35732 29.8747 6.64236 30.1579C6.92563 30.4412 7.31839 30.6042 7.71948 30.6042C8.11998 30.6042 8.51274 30.4418 8.79601 30.1579C9.07986 29.8747 9.24292 29.4819 9.24292 29.0808Z" fill="#FFFFFF"/>
</svg>
