<svg width="62" height="61" viewBox="0 0 62 61" fill="none" xmlns="http://www.w3.org/2000/svg">
<path d="M61.7356 43.4517C61.3839 39.8334 59.5312 36.5405 56.5189 34.1793C55.3571 33.2686 54.0376 32.5075 52.5826 31.9014V15.5873C52.5826 15.2424 52.3987 14.9236 52.0998 14.7511L26.7741 0.129356C26.4754 -0.0431188 26.1073 -0.0431188 25.8085 0.129356L0.482786 14.7511C0.183941 14.9236 0 15.2424 0 15.5873V44.831C0 45.1759 0.183941 45.4947 0.482786 45.6672L25.8085 60.2889C25.9578 60.3751 26.1246 60.4183 26.2913 60.4183C26.458 60.4183 26.6248 60.3752 26.7741 60.2889L52.0998 45.6672C52.2984 45.5525 52.4446 45.3727 52.5214 45.1641C53.1802 46.0141 53.6364 46.9668 53.8519 47.971C54.6482 51.681 52.2488 55.288 47.59 57.3844C47.1427 57.5857 46.9174 58.0905 47.0662 58.5579C47.1957 58.9647 47.5726 59.2307 47.9855 59.2306C48.0472 59.2306 48.1096 59.2246 48.1721 59.2123C52.6419 58.3352 56.3002 56.2559 58.7514 53.199C61.0128 50.3794 62.0725 46.9177 61.7356 43.4517ZM26.2913 29.0942L19.2318 25.0184L42.6264 11.5115L49.6859 15.5873L26.2913 29.0942ZM11.8873 20.7781L35.2819 7.27121L40.6952 10.3966L17.3006 23.9035L11.8873 20.7781ZM16.3352 25.5759L16.3351 34.8616L10.9218 31.7363L10.9217 22.4505L16.3352 25.5759ZM26.2913 2.08054L33.3507 6.15633L9.95613 19.6631L2.89672 15.5873L26.2913 2.08054ZM1.93114 17.2598L8.99056 21.3356L8.99068 32.2938C8.99068 32.6387 9.17462 32.9575 9.47347 33.1299L16.8178 37.3701C16.9671 37.4563 17.134 37.4995 17.3006 37.4995C17.4673 37.4995 17.6341 37.4564 17.7834 37.3701C18.0823 37.1977 18.2662 36.8789 18.2662 36.5339L18.2663 26.6909L25.3257 30.7667V57.7805L1.93114 44.2736V17.2598ZM27.2569 57.7804V30.7667L50.6515 17.2598V31.212C48.6432 30.6062 46.4266 30.2597 44.0454 30.1863V27.0635C44.0454 26.6885 43.8283 26.3473 43.4885 26.1887C43.1486 26.03 42.7476 26.0824 42.4601 26.323L31.297 35.6661C31.0694 35.8566 30.9422 36.141 30.9516 36.4375C30.9612 36.7341 31.1064 37.0097 31.3456 37.1851L42.5087 45.375C42.8022 45.5903 43.1917 45.6223 43.5163 45.4578C43.8408 45.2934 44.0455 44.9604 44.0455 44.5965V41.3502C46.6025 41.4876 48.8486 42.1754 50.5868 43.3603C50.6089 43.3754 50.6298 43.3913 50.6516 43.4065V44.2736L27.2569 57.7804ZM53.9436 54.9422C54.1822 54.6306 54.4004 54.3104 54.5981 53.9818C55.8128 51.9629 56.2077 49.7443 55.7402 47.5658C55.2489 45.2771 53.805 43.2168 51.6744 41.7645C49.3987 40.2133 46.4266 39.3932 43.0798 39.3932C42.5466 39.3932 42.1143 39.8256 42.1143 40.3588V42.6903L33.4808 36.3563L42.1143 29.1305V31.1369C42.1143 31.6701 42.5466 32.1025 43.0798 32.1025C54.6037 32.1025 59.2964 38.3166 59.8137 43.6381C60.1925 47.538 58.4165 52.0813 53.9436 54.9422Z" fill="#FFFFFF"/>
</svg>
